<svg width="376" height="376" viewBox="0 0 376 376" fill="none" xmlns="http://www.w3.org/2000/svg">
<path d="M353.01 332.685H16.5876C13.0043 332.685 10.1055 329.265 10.1055 325.037C10.1055 320.809 13.0043 317.389 16.5876 317.389H353.01C356.593 317.389 359.492 320.809 359.492 325.037C359.492 329.265 356.593 332.685 353.01 332.685Z" fill="#FFE3EC" fill-opacity="0.51"/>
<path d="M342.888 89.0493H144.08C134.377 89.0493 126.512 96.9147 126.512 106.617V239.301C126.512 249.004 134.377 256.869 144.08 256.869H342.888C352.59 256.869 360.455 249.004 360.455 239.301V106.617C360.455 96.9147 352.59 89.0493 342.888 89.0493Z" fill="#B27071" fill-opacity="0.12"/>
<path opacity="0.5" d="M144.08 89.0493H342.888C352.581 89.0493 360.455 96.9234 360.455 106.617V114.555H126.512V106.617C126.512 96.9234 134.386 89.0493 144.08 89.0493Z" fill="#B27071" fill-opacity="0.69"/>
<path d="M260.18 151.288L240.403 171.064L220.619 151.288L208.684 163.222L228.469 182.999L208.684 202.783L220.619 214.718L240.403 194.941L260.18 214.718L272.114 202.783L252.338 182.999L272.114 163.222L260.18 151.288Z" fill="#D6D6D6"/>
<path d="M168.29 90.6611C168.618 89.6311 173.893 73.3885 186.298 67.8536C192.241 65.205 198.93 64.956 198.93 64.956C199.621 64.9333 202.484 64.8428 206.333 65.4766C206.333 65.4766 215.218 66.5519 221.692 71.1474C233.091 79.2291 239.689 99.4559 238.478 117.057C238.048 123.316 236.565 129.734 240.629 134.544C242.825 137.136 246.458 137.997 251.631 139.581C262.361 142.864 280.007 147.018 287.104 161.381C294.201 175.745 295.061 195.983 290.387 201.518C285.712 207.053 174.221 206.532 170.271 202.209C166.321 197.885 159.054 176.945 158.194 160.34C157.424 145.569 167.769 139.457 170.271 121.256C172.014 108.579 170.135 97.7807 168.29 90.6611Z" fill="#534B59"/>
<path d="M231.89 89.0493C234.029 93.2146 237.097 99.938 239.326 108.642C242.858 122.395 240.073 124.579 243.311 129.876C250.498 141.637 266.107 134.449 281.025 147.873C289.401 155.4 292.299 164.671 293.272 167.942C297.517 182.136 293.555 194.315 291.88 198.706" stroke="#534B59" stroke-linecap="round" stroke-linejoin="round"/>
<path d="M172.364 116.566C170.27 121.275 166.908 128.734 162.505 137.846C154.457 154.496 152.216 157.518 152.827 163.449C153.88 173.726 162.652 184.502 162.652 184.502" stroke="#534B59" stroke-linecap="round" stroke-linejoin="round"/>
<path d="M189.421 152.661H218.16C240.888 152.661 265.778 168.926 280.719 184.818C292.672 197.529 301.421 212.979 308.066 229.12C316.713 250.139 325.18 279.263 314.608 301.018C313.035 304.266 309.447 311.386 301.863 315.234C293.51 319.467 284.783 316.943 282.078 316.943C264.431 316.943 108.016 316.988 108.016 316.988C103.839 276.354 111.887 245.747 117.705 229.041C123.104 213.523 129.431 196.001 145.923 179.362C161.724 163.425 179.144 156.091 189.433 152.672L189.421 152.661Z" fill="#DDC0C0"/>
<path d="M188.108 152.661L168.04 317.679L155.069 317.577L175.171 157.811L188.108 152.661Z" fill="#D79999"/>
<path d="M203.737 164.816C211.784 164.85 218.338 158.342 218.372 150.294L218.496 118.93L189.35 118.817L189.226 150.181C189.192 158.229 195.7 164.783 203.748 164.816H203.737Z" fill="#FCCDC6"/>
<path d="M189.25 141.419L208.231 131.662C208.039 133.303 206.964 141 200.184 146.32C195.86 149.716 191.321 150.485 189.216 150.712L189.238 141.408L189.25 141.419Z" fill="#EFB4AE"/>
<path d="M219.189 109.223C219.279 108.747 220.524 108.034 220.909 107.785C221.554 107.366 222.256 107.038 222.992 106.801C224.418 106.348 225.98 106.235 227.44 106.574C230.349 107.242 232.918 109.687 233.405 112.675C233.688 114.407 233.281 116.207 232.545 117.802C231.424 120.202 229.523 122.217 227.236 123.53C225.335 124.628 223.173 125.239 220.988 125.375C220.547 125.397 216.076 125.296 216.11 125.126C217.14 119.817 218.17 114.52 219.2 109.211L219.189 109.223Z" fill="#FCCDC6"/>
<path d="M223.182 109.528C222.843 111.871 220.783 124.209 209.656 132.935C207.608 134.543 193.98 145.216 181.518 140.01C165.501 133.309 167.245 107.004 167.358 105.578C167.743 100.756 168.863 86.5733 180.612 79.001C190.199 72.8209 200.59 75.096 202.061 75.4355C203.612 75.7977 213.505 78.2992 219.56 87.9995C225.05 96.8055 223.737 105.702 223.182 109.528Z" fill="#FCCDC6"/>
<path d="M176.448 105.595C176.187 107.643 174.603 109.137 172.905 108.934C171.207 108.719 170.041 106.885 170.301 104.825C170.562 102.765 172.146 101.282 173.844 101.486C175.542 101.701 176.708 103.535 176.448 105.595Z" fill="#534B59"/>
<path d="M194.966 107.915C194.706 109.964 193.121 111.458 191.424 111.254C189.726 111.039 188.56 109.205 188.82 107.145C189.081 105.096 190.665 103.602 192.363 103.806C194.061 104.021 195.227 105.855 194.966 107.915Z" fill="#534B59"/>
<path d="M182.039 108.665L179.198 112.502C178.677 113.204 178.869 114.212 179.616 114.664L182.22 116.249" stroke="#534B59" stroke-width="1.35" stroke-linecap="round" stroke-linejoin="round"/>
<path d="M201.169 117.588C200.875 119.897 198.781 121.527 196.471 121.233C194.162 120.938 192.533 118.844 192.827 116.535C193.121 114.226 195.215 112.596 197.524 112.891C199.833 113.185 201.463 115.279 201.169 117.588Z" fill="#EFB4AE"/>
<path d="M221.146 119.766C221.134 119.302 221.089 116.178 223.602 113.914C225.571 112.148 227.858 112.024 228.48 112.024" stroke="#534B59" stroke-width="1.35" stroke-linecap="round" stroke-linejoin="round"/>
<path d="M223.364 114.531C223.5 114.508 225.186 114.271 226.364 115.55C227.326 116.591 227.246 117.893 227.224 118.108" stroke="#534B59" stroke-width="1.35" stroke-linecap="round" stroke-linejoin="round"/>
<path d="M169.543 110.945C168.75 110.843 167.981 110.99 167.29 111.296C167.37 113.56 167.585 116.287 168.083 119.196C168.218 119.23 168.343 119.276 168.49 119.287C170.799 119.581 172.893 117.94 173.187 115.642C173.482 113.333 171.84 111.239 169.543 110.945Z" fill="#EFB4AE"/>
<path d="M166.046 98.3208H184.383C184.383 98.3208 185.073 92.3558 186.896 89.4129C188.718 86.47 191.48 84.6589 191.48 84.6589C191.061 85.7116 190.586 87.1038 190.223 88.7903C189.963 89.9901 189.624 91.5861 189.635 93.6574C189.635 93.6574 189.635 94.4384 190.088 98.3321H206.002C205.64 97.3587 204.847 94.8912 205.527 91.8464C206.115 89.1865 207.519 87.4321 208.209 86.6511C207.666 91.4276 208.277 95.2308 208.854 97.6417C209.862 101.83 211.537 104.92 212.793 107.229C213.993 109.436 215.182 111.213 216.087 112.469C216.087 112.469 218.249 109.742 220.003 108.678C221.758 107.614 223.546 106.663 223.546 106.663C223.942 104.58 224.305 101.411 223.75 97.6417C222.595 89.8996 218.306 84.84 216.506 82.9611C210.416 76.5546 203.127 75.1171 200.478 74.6304C194.819 73.6004 190.28 74.4606 188.718 74.8002C187.496 75.0719 184.655 75.7736 181.338 77.5054C179.04 78.7052 172.543 82.1914 168.684 89.8317C167.767 91.6427 166.578 94.5177 166.046 98.3321V98.3208Z" fill="#534B59"/>
<path d="M185.539 154.029C185.539 154.029 167.779 226.775 165.708 251.179C163.637 275.571 162.856 317.677 162.856 317.677L108.004 316.975C106.884 309.097 105.888 298.378 106.273 285.701C107.178 256.046 115.101 233.997 118.214 226.005C125.549 207.205 134.4 184.488 157.4 167.872C168.04 160.186 178.385 156.202 185.539 154.04V154.029Z" fill="#FFECEC"/>
<path d="M149.353 199.965L126.512 317.217H140.185L149.353 199.965Z" fill="#FFC4C4"/>
<path d="M203.14 291.029C205.211 293.18 206.411 295.24 207.102 296.677C209.263 301.171 209.343 305.438 209.399 308.46C209.433 310.26 209.331 311.754 209.229 312.784C209.229 312.784 182.415 304.137 178.431 304.476C174.922 304.782 157.446 309.253 153.337 310.305C152.771 310.452 152.171 310.441 151.605 310.26L145.719 308.449L140.173 308.687C138.181 308.766 136.811 306.729 137.626 304.918C137.83 304.465 138.102 303.967 138.453 303.435C140.875 299.801 143.297 297.209 143.297 297.209L134.4 298.817C133.54 298.817 132.125 298.703 131.639 297.832C130.914 296.542 132.691 294.368 133.902 292.908C136.721 289.524 139.8 287.702 140.784 287.136C144.259 285.121 147.496 283.242 152.805 281.646C156.993 280.39 168.515 276.722 182.698 280.322C191.991 282.676 198.816 287.339 203.14 291.029Z" fill="#FCCDC6"/>
<path d="M201.726 289.852C201.839 290.758 202.462 296.281 198.489 301.012C194.063 306.276 187.634 306.151 186.853 306.117L209.219 312.773C209.219 312.773 209.389 304.77 208.993 302.801C208.597 300.831 207.216 296.292 205.801 294.346C204.386 292.399 201.726 289.841 201.726 289.841V289.852Z" fill="#EFB4AE"/>
<path d="M145.719 308.461C148.288 305.643 152.736 301.478 159.313 298.195C165.515 295.094 171.175 294.007 174.876 293.588" stroke="#534B59" stroke-linecap="round" stroke-linejoin="round"/>
<path d="M140.171 308.701C144.224 301.785 148.717 298.185 152.034 296.182C152.034 296.182 154.478 294.699 167.348 289.866" stroke="#534B59" stroke-linecap="round" stroke-linejoin="round"/>
<path d="M142.9 297.292C146.16 292.481 149.567 290.24 152.046 289.085C156.438 287.037 163.116 285.973 163.116 285.973" stroke="#534B59" stroke-linecap="round" stroke-linejoin="round"/>
<path d="M221.147 152.661C221.147 152.661 215.544 194.337 214.763 219.25C213.982 244.163 213.19 286.733 213.19 286.733L203.15 291.012C203.15 291.012 207.938 305.16 208.244 309.563C208.538 313.978 208.244 317.668 208.244 317.668C222.924 317.385 234.854 317.747 243.06 318.132C250.033 318.46 260.435 318.528 281.216 318.652C288.608 318.698 294.856 318.664 301.862 315.223C302.688 314.815 309.729 311.261 314.958 304.119C318.342 299.501 323.639 289.699 320.663 265.442C319.406 255.233 315.06 223.302 290.294 193.036C276.146 175.74 262.178 167.353 258.296 165.123C246.513 158.355 236.156 155.593 234.005 155.038C228.878 153.714 224.441 153.035 221.158 152.661H221.147Z" fill="#FFECEC"/>
<path d="M254.844 232.331C255.115 238.851 254.663 250.555 248.675 263.221C245.472 269.989 241.567 275.139 238.296 278.784C245.449 276.939 252.603 275.094 259.756 273.26L254.855 232.343L254.844 232.331Z" fill="#FFC4C4"/>
<path d="M145.696 309.795H223.58V314.841C223.58 316.955 221.865 318.67 219.751 318.67H145.686V309.795H145.696Z" fill="#D79999"/>
<path d="M153.8 318.663H51.6062C49.273 318.663 47.1491 316.769 46.86 314.435L37.5768 238.525C37.2877 236.192 38.9528 234.297 41.2861 234.297H143.49C145.824 234.297 147.947 236.192 148.237 238.525L157.52 314.435C157.809 316.769 156.144 318.663 153.81 318.663H153.8Z" fill="#D79999"/>
<path d="M147.819 318.663H45.6243C43.291 318.663 41.1672 316.769 40.878 314.435L31.5949 238.525C31.3057 236.192 32.9709 234.297 35.3042 234.297H137.508C139.842 234.297 141.965 236.192 142.255 238.525L151.538 314.435C151.827 316.769 150.162 318.663 147.829 318.663H147.819Z" fill="#DDBFC0"/>
<path d="M304.876 264.793C306.068 262.462 307.199 260.671 308.275 259.428C309.351 258.184 310.712 257.229 312.335 256.568C313.295 256.156 314.269 255.888 315.288 255.751C316.3 255.621 317.269 255.428 318.19 255.18C319.11 254.931 319.977 254.559 320.767 254.069C321.558 253.579 322.255 252.759 322.834 251.615C323.822 249.68 323.97 248.05 323.299 246.736C322.628 245.421 321.555 244.393 320.096 243.652C318 242.579 316.257 242.433 314.876 243.205C313.488 243.97 312.197 245.292 310.994 247.162L303.347 243.269C304.335 241.334 305.537 239.735 306.984 238.476C308.416 237.215 310.007 236.326 311.735 235.815C313.463 235.304 315.297 235.169 317.238 235.41C319.179 235.651 321.135 236.277 323.115 237.283C327.389 239.455 330.312 242.033 331.896 245.03C333.481 248.028 333.273 251.481 331.295 255.396C330.655 256.665 329.954 257.704 329.227 258.522C328.485 259.339 327.662 260.001 326.764 260.515C325.859 261.021 324.862 261.424 323.766 261.715C322.669 262.006 321.47 262.261 320.165 262.495C318.952 262.719 317.94 262.992 317.108 263.291C316.282 263.598 315.573 263.987 314.971 264.48C314.368 264.974 313.86 265.541 313.43 266.195C312.999 266.849 312.563 267.609 312.12 268.474L304.891 264.794L304.876 264.793ZM298.823 276.118L302.776 268.347L310.782 272.419L306.829 280.191L298.823 276.118Z" fill="#B27071"/>
<path d="M183.103 122.946C181.913 123.797 179.344 125.098 178.591 123.5" stroke="#3C3840" stroke-width="1.35" stroke-linecap="round"/>
<path d="M84.9919 84.288L70.7906 90.5986L91.3655 128.461L100.833 124.254L84.9919 84.288Z" fill="#B27071"/>
<circle cx="100.751" cy="137.807" r="5.14008" transform="rotate(-31.0842 100.751 137.807)" fill="#B27071"/>
</svg>
