<svg width="24" height="24" viewBox="0 0 24 24" fill="none" xmlns="http://www.w3.org/2000/svg">
<path d="M10.4901 2.23L5.50015 4.09999C4.35015 4.52999 3.41016 5.88998 3.41016 7.11998V14.55C3.41016 15.73 4.19017 17.28 5.14017 17.99L9.44016 21.2C10.8502 22.26 13.1701 22.26 14.5801 21.2L18.8802 17.99C19.8302 17.28 20.6101 15.73 20.6101 14.55V7.11998C20.6101 5.88998 19.6701 4.52999 18.5201 4.09999L13.5302 2.23C12.6802 1.92 11.3201 1.92 10.4901 2.23Z" stroke="#77787B" stroke-width="1.5" stroke-linecap="round" stroke-linejoin="round"/>
<path d="M12.0002 10.92C11.9602 10.92 11.9102 10.92 11.8702 10.92C10.9302 10.89 10.1802 10.11 10.1802 9.16003C10.1802 8.19003 10.9702 7.40002 11.9402 7.40002C12.9102 7.40002 13.7002 8.19003 13.7002 9.16003C13.6902 10.12 12.9402 10.89 12.0002 10.92Z" stroke="#77787B" stroke-width="1.5" stroke-linecap="round" stroke-linejoin="round"/>
<path d="M10.01 13.72C9.05004 14.36 9.05004 15.41 10.01 16.05C11.1 16.78 12.89 16.78 13.98 16.05C14.94 15.41 14.94 14.36 13.98 13.72C12.9 12.99 11.11 12.99 10.01 13.72Z" stroke="#77787B" stroke-width="1.5" stroke-linecap="round" stroke-linejoin="round"/>
</svg>
