<svg width="20" height="20" viewBox="0 0 20 20" fill="none" xmlns="http://www.w3.org/2000/svg">
<path d="M18.2748 5.63336L15.4665 16.9084C15.2665 17.7501 14.5165 18.3334 13.6498 18.3334H2.69978C1.44145 18.3334 0.541462 17.1 0.916462 15.8916L4.42479 4.62506C4.66646 3.84173 5.39147 3.29999 6.20813 3.29999H16.4581C17.2498 3.29999 17.9081 3.78333 18.1831 4.44999C18.3415 4.80833 18.3748 5.2167 18.2748 5.63336Z" stroke="#606060" stroke-width="1.5" stroke-miterlimit="10"/>
<path d="M13.3335 18.3333H17.3168C18.3918 18.3333 19.2335 17.425 19.1585 16.35L18.3335 5" stroke="#606060" stroke-width="1.5" stroke-miterlimit="10" stroke-linecap="round" stroke-linejoin="round"/>
<path d="M8.06689 5.31669L8.93357 1.71674" stroke="#606060" stroke-width="1.5" stroke-miterlimit="10" stroke-linecap="round" stroke-linejoin="round"/>
<path d="M13.6499 5.32501L14.4332 1.70837" stroke="#606060" stroke-width="1.5" stroke-miterlimit="10" stroke-linecap="round" stroke-linejoin="round"/>
<path d="M6.4165 10H13.0832" stroke="#606060" stroke-width="1.5" stroke-miterlimit="10" stroke-linecap="round" stroke-linejoin="round"/>
<path d="M5.5835 13.3333H12.2502" stroke="#606060" stroke-width="1.5" stroke-miterlimit="10" stroke-linecap="round" stroke-linejoin="round"/>
</svg>
