<svg width="16" height="16" viewBox="0 0 16 16" fill="none" xmlns="http://www.w3.org/2000/svg">
<rect x="1" y="1" width="14" height="14" rx="7" fill="white"/>
<path fill-rule="evenodd" clip-rule="evenodd" d="M11.0662 5.85355C11.2615 5.65829 11.2615 5.34171 11.0662 5.14645C10.8709 4.95118 10.5544 4.95118 10.3591 5.14645L8.10633 7.39922L5.85355 5.14645C5.65829 4.95118 5.34171 4.95118 5.14645 5.14645C4.95118 5.34171 4.95118 5.65829 5.14645 5.85355L7.39922 8.10633L5.14645 10.3591C4.95118 10.5544 4.95118 10.8709 5.14645 11.0662C5.34171 11.2615 5.65829 11.2615 5.85355 11.0662L8.10633 8.81343L10.3591 11.0662C10.5544 11.2615 10.8709 11.2615 11.0662 11.0662C11.2615 10.8709 11.2615 10.5544 11.0662 10.3591L8.81343 8.10633L11.0662 5.85355Z" fill="#777777"/>
</svg>
