<svg width="22" height="22" viewBox="0 0 22 22" fill="none" xmlns="http://www.w3.org/2000/svg">
<path d="M6.41667 11C2.75 11 2.75 12.6408 2.75 14.6667V15.5833C2.75 18.1133 2.75 20.1667 7.33333 20.1667H14.6667C18.3333 20.1667 19.25 18.1133 19.25 15.5833V14.6667C19.25 12.6408 19.25 11 15.5833 11C14.6667 11 14.41 11.1925 13.9333 11.55L12.9983 12.54C11.9167 13.695 10.0833 13.695 8.9925 12.54L8.06667 11.55C7.59 11.1925 7.33333 11 6.41667 11Z" stroke="#77787B" stroke-width="1.5" stroke-miterlimit="10" stroke-linecap="round" stroke-linejoin="round"/>
<path d="M17.4163 11V5.49998C17.4163 3.47415 17.4163 1.83331 13.7497 1.83331H8.24967C4.58301 1.83331 4.58301 3.47415 4.58301 5.49998V11" stroke="#77787B" stroke-width="1.5" stroke-miterlimit="10" stroke-linecap="round" stroke-linejoin="round"/>
<path d="M9.6709 8.46082H12.7234" stroke="#77787B" stroke-width="1.5" stroke-linecap="round" stroke-linejoin="round"/>
<path d="M8.91016 5.71082H13.4935" stroke="#77787B" stroke-width="1.5" stroke-linecap="round" stroke-linejoin="round"/>
</svg>
