<svg width="40" height="40" viewBox="0 0 40 40" fill="none" xmlns="http://www.w3.org/2000/svg">
<g id="fi:x">
<path id="Union" fill-rule="evenodd" clip-rule="evenodd" d="M30.7312 9.85355C30.9264 9.65829 30.9264 9.34171 30.7312 9.14645C30.5359 8.95118 30.2193 8.95118 30.0241 9.14645L19.9388 19.2317L9.85355 9.14645C9.65829 8.95118 9.34171 8.95118 9.14645 9.14645C8.95118 9.34171 8.95118 9.65829 9.14645 9.85355L19.2317 19.9388L9.14645 30.0241C8.95118 30.2193 8.95118 30.5359 9.14645 30.7312C9.34171 30.9264 9.65829 30.9264 9.85355 30.7312L19.9388 20.6459L30.0241 30.7312C30.2193 30.9264 30.5359 30.9264 30.7312 30.7312C30.9264 30.5359 30.9264 30.2193 30.7312 30.0241L20.6459 19.9388L30.7312 9.85355Z" fill="#555555"/>
</g>
</svg>
