<svg width="82" height="72" viewBox="0 0 82 72" fill="none" xmlns="http://www.w3.org/2000/svg">
<path id="Subtract" fill-rule="evenodd" clip-rule="evenodd" d="M45.2043 2.46372L81.2716 64.1807C83.2738 67.6068 80.9117 72 77.0673 72H4.93267C1.08826 72 -1.27384 67.6069 0.728398 64.1807L36.7957 2.46372C38.7155 -0.821238 43.2846 -0.82124 45.2043 2.46372ZM43.1638 49.0702L43.6837 24.411H38.1597L38.7013 49.0702H43.1638ZM38.788 54.4246C38.2681 55.0168 38.0081 55.7532 38.0081 56.6336C38.0081 57.482 38.2681 58.2103 38.788 58.8186C39.3223 59.4108 40.0588 59.707 40.9975 59.707C41.9218 59.707 42.6511 59.4108 43.1854 58.8186C43.7198 58.2103 43.9869 57.482 43.9869 56.6336C43.9869 55.7532 43.7198 55.0168 43.1854 54.4246C42.6511 53.8163 41.9218 53.5122 40.9975 53.5122C40.0588 53.5122 39.3223 53.8163 38.788 54.4246Z" fill="#BBBBBB"/>
</svg>
