<svg width="24" height="24" viewBox="0 0 24 24" fill="none" xmlns="http://www.w3.org/2000/svg">
<g id="fi:x">
<rect width="24" height="24" rx="12" fill="#F6F6F6"/>
<path id="Union" fill-rule="evenodd" clip-rule="evenodd" d="M17.0022 7.85355C17.1975 7.65829 17.1975 7.34171 17.0022 7.14645C16.807 6.95118 16.4904 6.95118 16.2951 7.14645L12.0743 11.3672L7.85355 7.14645C7.65829 6.95118 7.34171 6.95118 7.14645 7.14645C6.95118 7.34171 6.95118 7.65829 7.14645 7.85355L11.3672 12.0743L7.14645 16.2951C6.95118 16.4904 6.95118 16.807 7.14645 17.0022C7.34171 17.1975 7.65829 17.1975 7.85355 17.0022L12.0743 12.7814L16.2951 17.0022C16.4904 17.1975 16.807 17.1975 17.0022 17.0022C17.1975 16.807 17.1975 16.4904 17.0022 16.2951L12.7814 12.0743L17.0022 7.85355Z" fill="#555555"/>
</g>
</svg>
