<svg width="20" height="20" viewBox="0 0 20 20" fill="none" xmlns="http://www.w3.org/2000/svg">
<path d="M7.49984 18.3334H12.4998C16.6665 18.3334 18.3332 16.6667 18.3332 12.5V7.50002C18.3332 3.33335 16.6665 1.66669 12.4998 1.66669H7.49984C3.33317 1.66669 1.6665 3.33335 1.6665 7.50002V12.5C1.6665 16.6667 3.33317 18.3334 7.49984 18.3334Z" stroke="#606060" stroke-width="1.5" stroke-linecap="round" stroke-linejoin="round"/>
<path d="M5.8335 6.875C6.66683 7.70833 8.02516 7.70833 8.86683 6.875" stroke="#606060" stroke-width="1.5" stroke-miterlimit="10" stroke-linecap="round" stroke-linejoin="round"/>
<path d="M11.1333 6.875C11.9666 7.70833 13.325 7.70833 14.1666 6.875" stroke="#606060" stroke-width="1.5" stroke-miterlimit="10" stroke-linecap="round" stroke-linejoin="round"/>
<path d="M7 10.8333H13C13.4167 10.8333 13.75 11.1666 13.75 11.5833C13.75 13.6583 12.075 15.3333 10 15.3333C7.925 15.3333 6.25 13.6583 6.25 11.5833C6.25 11.1666 6.58333 10.8333 7 10.8333Z" stroke="#606060" stroke-width="1.5" stroke-miterlimit="10" stroke-linecap="round" stroke-linejoin="round"/>
</svg>
