<svg width="500" height="500" viewBox="0 0 500 500" fill="none" xmlns="http://www.w3.org/2000/svg">
<circle cx="250" cy="250" r="250" fill="#222222"/>
<path d="M55.5047 337V189H104.105C136.705 189 161.905 200.4 161.905 235.6C161.905 269.4 136.705 284.4 104.905 284.4H85.1047V337H55.5047ZM85.1047 261H102.905C123.305 261 133.105 252.4 133.105 235.6C133.105 218.2 122.305 212.6 101.905 212.6H85.1047V261ZM229.783 339.8C209.783 339.8 190.183 332.2 175.783 318.4L192.783 298C203.183 307.8 217.383 314.2 230.383 314.2C245.783 314.2 253.783 307.6 253.783 297.4C253.783 286.4 244.783 282.8 231.583 277.2L211.783 268.8C196.983 262.8 181.783 250.6 181.783 229.2C181.783 205 203.183 186.4 232.983 186.4C250.183 186.4 267.383 193.2 279.383 205.4L264.583 224C254.983 216.2 245.183 211.8 232.983 211.8C219.983 211.8 211.783 217.6 211.783 227.2C211.783 237.8 222.383 241.8 234.983 246.8L254.383 254.8C272.183 262.2 283.983 273.8 283.983 295C283.983 319.2 263.783 339.8 229.783 339.8ZM310.388 337V189H342.988L368.188 258.4C371.588 267.6 374.188 277.2 377.388 286.8H378.188C381.588 277.2 384.188 267.6 387.188 258.4L411.788 189H444.588V337H417.588V275.2C417.588 261.2 419.988 240.6 421.588 226.6H420.588L408.388 261.4L385.588 323.8H368.588L345.788 261.4L333.788 226.6H332.988C334.588 240.6 336.788 261.2 336.788 275.2V337H310.388Z" fill="white"/>
</svg>
